# xmcd
#
# Track frame offsets:
#	182
#	20892
#	52700
#	80335
#	97457
#	114640
#	139567
#	158012
#	188450
#	206105
#	222730
#	244527
#	260715
#	282210
#	298020
#	313380
#
# Disc length: 4395
#
# Revision: 1
# Processed by: cddbd v1.5.1PL0 Copyright (c) Steve Scherf et al.
# Submitted via: dBpowerAMP V4.0
# Normalized: r0:TDELIM( - )
#
DISCID=f6112910
DTITLE=Various Artist - XXL 05, CD2
DYEAR=1995
DGENRE=Dance
TTITLE0=Shades Of Rhythm - Musical Freedom
TTITLE1=Underground Sound Of Lisbon - So Get Up
TTITLE2=Accelerator - Accelerator
TTITLE3=Quadripart - Joy
TTITLE4=Sunstone 2 - Paino Hell
TTITLE5=MD Express - Welcome To Da Club
TTITLE6=Jens Lissat - Energy Flow
TTITLE7=Gerd - Vorpal Blade
TTITLE8=Trax-x - Gravity
TTITLE9=CJ Bolland - Double Kick
TTITLE10=Spinning Atoms - Sub-Set
TTITLE11=Trance Team - Breath Of Live
TTITLE12=House Trap - House Trap
TTITLE13=Michael Sanctorum - New Jack City
TTITLE14=Push - Acid Hysteria
TTITLE15=Amuk - Otomic Killer
EXTD=
EXTT0=
EXTT1=
EXTT2=
EXTT3=
EXTT4=
EXTT5=
EXTT6=
EXTT7=
EXTT8=
EXTT9=
EXTT10=
EXTT11=
EXTT12=
EXTT13=
EXTT14=
EXTT15=
PLAYORDER=
